# AST/ASF file generated using VICON BodyLanguage
# -----------------------------------------------
:version 1.10
:name VICON
:units
  mass 1.0
  length 0.45
  angle deg
:documentation
   .ast/.asf automatically generated from VICON data using
   VICON BodyBuilder and BodyLanguage model FoxedUp or BRILLIANT.MOD
:root
   order TX TY TZ RX RY RZ
   axis XYZ
   position 0 0 0  
   orientation 0 0 0 
:bonedata
  begin
     id 1 
     name lhipjoint
     direction 0.645422 -0.672597 0.361999 
     length 2.39934 
     axis 0 0 0  XYZ
  end
  begin
     id 2 
     name lfemur
     direction 0.34202 -0.939693 0  
     length 6.58112  
     axis 0 0 20  XYZ
    dof rx ry rz
    limits (-160.0 20.0)
           (-70.0 70.0)
           (-60.0 70.0)
  end
  begin
     id 3 
     name ltibia
     direction 0.34202 -0.939693 0   
     length 7.02673   
     axis 0 0 20   XYZ
    dof rx
    limits (-10.0 170.0)
  end
  begin
     id 4 
     name lfoot
     direction 0.0835106 -0.229444 0.969733   
     length 2.08772   
     axis -90 7.62852e-016 20   XYZ
    dof rx rz
    limits (-45.0 90.0)
           (-70.0 20.0)
  end
  begin
     id 5 
     name ltoes
     direction 1.5358e-011 -4.21925e-011 1   
     length 1.04844   
     axis -90 7.62852e-016 20   XYZ
    dof rx
    limits (-90.0 20.0)
  end
  begin
     id 6 
     name rhipjoint
     direction -0.644959 -0.672941 0.362185   
     length 2.39812  
     axis 0 0 0  XYZ 
  end
  begin
     id 7 
     name rfemur
     direction -0.34202 -0.939693 0   
     length 6.67015   
     axis 0 0 -20   XYZ
    dof rx ry rz
    limits (-160.0 20.0)
           (-70.0 70.0)
           (-70.0 60.0)
  end
  begin
     id 8 
     name rtibia
     direction -0.34202 -0.939693 0   
     length 7.35735   
     axis 0 0 -20   XYZ
    dof rx
    limits (-10.0 170.0)
 end
 begin
     id 9 
     name rfoot
     direction -0.0670769 -0.184292 0.98058   
     length 2.25469  
     axis -90 -7.62852e-016 -20   XYZ
    dof rx rz
    limits (-45.0 90.0)
           (-20.0 70.0)
  end
  begin
     id 10 
     name rtoes
     direction -1.53575e-011 -4.21908e-011 1   
     length 1.13399   
     axis -90 -7.62852e-016 -20   XYZ
    dof rx
    limits (-90.0 20.0)
  end
  begin
     id 11 
     name lowerback
     direction -0.0188328 0.993434 -0.112847   
     length 2.27656   
     axis 0 0 0   XYZ
    dof rx ry rz
    limits (-20.0 45.0)
           (-30.0 30.0)
           (-30.0 30.0)
  end
  begin
     id 12 
     name upperback
     direction 0.00983139 0.998968 -0.04435   
     length 2.28631   
     axis 0 0 0   XYZ
    dof rx ry rz
    limits (-20.0 45.0)
           (-30.0 30.0)
           (-30.0 30.0)
  end
  begin
     id 13 
     name thorax
     direction 0.0177718 0.999807 0.00833073   
     length 2.30999   
     axis 0 0 0   XYZ
    dof rx ry rz
    limits (-20.0 45.0)
           (-30.0 30.0)
           (-30.0 30.0)
  end
  begin
     id 14 
     name lowerneck
     direction -0.0835025 0.993181 0.0813558   
     length 1.39447   
     axis 0 0 0   XYZ
    dof rx ry rz
    limits (-20.0 45.0)
           (-30.0 30.0)
           (-30.0 30.0)
  end
  begin
     id 15 
     name upperneck
     direction 0.210059 0.976535 0.0474817   
     length 1.39882   
     axis 0 0 0   XYZ
    dof rx ry rz
    limits (-20.0 45.0)
           (-30.0 30.0)
           (-30.0 30.0)
  end
  begin
     id 16
     name head
     direction 0.0780891 0.996944 -0.00207154  
     length 1.41828  
     axis 0 0 0   XYZ
    dof rx ry rz
    limits (-20.0 45.0)
           (-30.0 30.0)
           (-30.0 30.0)
  end
  begin
     id 17 
     name lclavicle
     direction 0.982414 0.166355 -0.0847829  
     length 3.57922  
     axis 0 0 0   XYZ
    dof ry rz
    limits (-20.0 10.0)
           (0.0 20.0)
  end
  begin
     id 18 
     name lhumerus
     direction 1 -4.48975e-011 5.47647e-028   
     length 4.76405   
     axis -180 -30 -90   XYZ
    dof rx ry rz
    limits (-60.0 90.0)
           (-90.0 90.0)
           (-90.0 90.0)
  end
  begin
     id 19
     name lradius
     direction 1 -4.48949e-011 -8.32142e-027   
     length 3.13759   
     axis -180 -30 -90   XYZ
    dof rx
    limits (-10.0 170.0)
  end
  begin
     id 20
     name lwrist
     direction 1 -4.48978e-011 -1.32705e-026   
     length 1.56879   
     axis 9.60836e-015 90 90   XYZ
    dof ry
    limits (-180.0 0.0)
 end
  begin
     id 21 
     name lhand
     direction 1 -4.48975e-011 -2.65409e-026   
     length 0.732262   
     axis 1.69354e-014 90 90   XYZ
    dof rx rz
    limits (-90.0 90.0)
           (-45.0 45.0)
  end
  begin
     id 22 
     name lfingers
     direction 1 -4.48923e-011 -5.30819e-026   
     length 0.590368   
     axis 3.38708e-014 90 90   XYZ
    dof rx
    limits (0.0 90.0)
  end
  begin
     id 23
     name lthumb
     direction 0.707107 -6.34914e-011 0.707107   
     length 0.847654   
     axis -90 45 2.85299e-015   XYZ
    dof rx rz
    limits (-45.0 45.0)
           (-45.0 45.0)
  end
  begin
     id 24 
     name rclavicle
     direction -0.963658 0.245183 -0.106063   
     length 3.43472  
     axis 0 0 0   XYZ 
    dof ry rz
    limits (-10.0 20.0)
           (-20.0 0.0)
  end
  begin
     id 25 
     name rhumerus
     direction -1 -4.48963e-011 -1.64784e-027  
     length 5.10161   
     axis -180 30 90   XYZ
    dof rx ry rz
    limits (-90.0 60.0)
           (-90.0 90.0)
           (-90.0 90.0)
  end
  begin
     id 26 
     name rradius
     direction -1 -4.48969e-011 -2.87943e-027   
     length 3.23267   
     axis -180 30 90   XYZ
    dof rx
    limits (-10.0 170.0)
  end
  begin
     id 27 
     name rwrist
     direction -1 -4.48982e-011 -1.32705e-026   
     length 1.61633   
     axis 9.60836e-015 -90 -90   XYZ
    dof ry
    limits (-180.0 0.0)
  end
  begin
     id 28
     name rhand
     direction -1 -4.48963e-011 -2.65409e-026   
     length 0.702   
     axis 1.69354e-014 -90 -90   XYZ
    dof rx rz
    limits (-90.0 90.0)
           (-45.0 45.0)
  end
  begin
     id 29
     name rfingers
     direction -1 -4.48934e-011 -5.30819e-026   
     length 0.565971   
     axis 3.38708e-014 -90 -90   XYZ
    dof rx
    limits (0.0 90.0)
  end
  begin
     id 30
     name rthumb
     direction -0.707107 -6.34908e-011 0.707107   
     length 0.812624   
     axis -90 -45 -2.85299e-015   XYZ
    dof rx rz
    limits (-45.0 45.0)
           (-45.0 45.0)
  end
:hierarchy
  begin
    root lhipjoint rhipjoint lowerback
    lhipjoint lfemur
    lfemur ltibia
    ltibia lfoot
    lfoot ltoes
    rhipjoint rfemur
    rfemur rtibia
    rtibia rfoot
    rfoot rtoes
    lowerback upperback
    upperback thorax
    thorax lowerneck lclavicle rclavicle
    lowerneck upperneck
    upperneck head
    lclavicle lhumerus
    lhumerus lradius
    lradius lwrist
    lwrist lhand lthumb
    lhand lfingers
    rclavicle rhumerus
    rhumerus rradius
    rradius rwrist
    rwrist rhand rthumb
    rhand rfingers
  end

#!OML:ASF \\sashay\E\basketball\basketball\Project 1\Capture day 1\Session 1\Subject.ASF
:FULLY-SPECIFIED
:DEGREES
103
root 8.83347 14.297 -0.292872 -179.187 25.9167 167.859
lowerback 15.8816 3.12521 -7.45066
upperback 8.53748 4.4835 -4.6151
thorax 0.150701 2.70115 -1.37011
lowerneck 5.05613 -15.8615 -17.4389
upperneck -18.7007 -17.8624 39.7272
head 0.145762 -9.7565 15.8988
rclavicle 3.03147e-014 -1.80894e-014
rhumerus -28.2278 -10.7311 -65.6605
rradius 29.3347
rwrist 16.4402
rhand -37.2868 65.3045
rfingers 7.12502
rthumb -10.3513 35.5793
lclavicle 3.03147e-014 -1.80894e-014
lhumerus 25.9722 14.2622 72.0902
lradius 63.3643
lwrist 38.7035
lhand 3.18443 35.5874
lfingers 7.12502
lthumb 28.6368 63.413
rfemur 9.71514 -6.0445 37.4072
rtibia 42.2449
rfoot 8.10412 4.28258
rtoes 3.45735
lfemur -58.1693 -7.12766 -15.274
ltibia 53.1555
lfoot 5.71317 -19.7095
ltoes -41.5106
104
root 9.21309 14.2492 -0.5488 -179.562 26.8666 168.053
lowerback 16.3564 3.21766 -7.21692
upperback 8.53231 4.57394 -4.51992
thorax -0.101905 2.75302 -1.4504
lowerneck 5.86966 -16.3977 -17.6261
upperneck -19.9695 -18.3403 40.8729
head 0.0276192 -10.174 16.4644
rclavicle 2.76311e-014 -4.01545e-014
rhumerus -30.4692 -11.0404 -63.8552
rradius 30.0345
rwrist 13.4257
rhand -37.4604 65.2096
rfingers 7.12502
rthumb -10.5187 35.4928
lclavicle 2.76311e-014 -4.01545e-014
lhumerus 26.2687 15.535 71.6902
lradius 63.6392
lwrist 41.9656
lhand 4.45763 35.849
lfingers 7.12502
lthumb 29.8525 63.4628
rfemur 8.21167 -7.44346 37.2953
rtibia 46.5728
rfoot 7.15624 2.11651
rtoes -1.4895
lfemur -56.9797 -7.30302 -15.769
ltibia 53.6306
lfoot 7.26056 -20.5715
ltoes -41.2582
105
root 9.59829 14.1947 -0.805546 -180.162 28.0597 168.185
lowerback 16.894 3.35371 -7.08987
upperback 8.64349 4.73301 -4.3855
thorax -0.269525 2.83985 -1.44305
lowerneck 5.39628 -17.1565 -17.7432
upperneck -20.3301 -19.3365 41.5157
head 0.45728 -10.6758 16.4406
rclavicle 1.11319e-014 -1.94809e-014
rhumerus -32.4985 -11.6449 -61.9254
rradius 30.4774
rwrist 10.7915
rhand -37.9224 64.3519
rfingers 7.12502
rthumb -10.9645 34.6582
lclavicle 1.11319e-014 -1.94809e-014
lhumerus 26.2515 16.3902 70.679
lradius 64.3554
lwrist 45.8454
lhand 4.56707 36.8105
lfingers 7.12502
lthumb 29.957 64.4055
rfemur 6.71029 -8.49234 37.1874
rtibia 51.084
rfoot 6.08318 -0.322027
rtoes -2.69358
lfemur -55.2425 -7.15878 -16.3369
ltibia 54.011
lfoot 9.09154 -21.2122
ltoes -39.3219
106
root 9.98176 14.1307 -1.06219 -181.151 29.4838 168.088
lowerback 17.5871 3.58039 -7.15045
upperback 8.93631 5.02402 -4.22593
thorax -0.332868 2.99889 -1.33514
lowerneck 5.57968 -17.8285 -17.6397
upperneck -21.3409 -20.0294 42.2655
head 0.497144 -11.1419 16.6142
rclavicle 3.24019e-014 -5.48646e-014
rhumerus -34.3086 -13.5451 -59.5207
rradius 30.7071
rwrist 9.3521
rhand -38.9777 62.6714
rfingers 7.12502
rthumb -11.9822 33.0344
lclavicle 3.24019e-014 -5.48646e-014
lhumerus 26.1333 16.9955 69.6485
lradius 65.3616
lwrist 48.6604
lhand 4.62727 38.1349
lfingers 7.12502
lthumb 30.0144 65.7195
rfemur 5.23529 -9.31848 36.9026
rtibia 55.9223
rfoot 5.12464 -2.90066
rtoes -8.55997
lfemur -52.8299 -6.81972 -17.0631
ltibia 54.3583
lfoot 9.05853 -21.7569
ltoes -32.2363
107
root 10.3525 14.0485 -1.31317 -182.089 31.1267 167.775
lowerback 18.219 3.85925 -7.48499
upperback 9.13706 5.32101 -4.093
thorax -0.477913 3.14824 -1.11049
lowerneck 5.72241 -18.08 -18.079
upperneck -22.4871 -20.1148 43.0088
head 0.410462 -11.2648 17.0546
rclavicle 3.08116e-014 2.18663e-014
rhumerus -35.9799 -15.0846 -57.1683
rradius 30.8104
rwrist 7.871
rhand -38.0675 60.7957
rfingers 7.12502
rthumb -11.1043 31.1095
lclavicle 3.08116e-014 2.18663e-014
lhumerus 25.8008 17.5728 68.5878
lradius 66.2928
lwrist 49.8729
lhand 5.4498 38.7506
lfingers 7.12502
lthumb 30.7989 66.1902
rfemur 3.61094 -10.5198 36.1358
rtibia 60.7987
rfoot 4.94694 -4.37073
rtoes -24.3487
lfemur -50.4169 -6.15654 -17.9548
ltibia 54.7996
lfoot 5.80687 -22.0658
ltoes -16.1292
108
root 10.7485 14.0453 -1.56371 -183.02 32.8956 167.128
lowerback 18.6971 4.13268 -8.16272
upperback 9.20339 5.525 -3.96642
thorax -0.710934 3.23138 -0.685428
lowerneck 6.03554 -18.1153 -17.8827
upperneck -23.7386 -19.7321 43.3288
head -0.058229 -11.1863 17.3998
rclavicle -8.48811e-014 8.82604e-014
rhumerus -37.454 -15.8058 -54.928
rradius 30.7246
rwrist 6.35617
rhand -38.4707 58.6261
rfingers 7.12502
rthumb -11.4933 28.9612
lclavicle -8.48811e-014 8.82604e-014
lhumerus 25.0763 18.2812 67.408
lradius 66.9916
lwrist 50.3075
lhand 7.32388 38.609
lfingers 7.12502
lthumb 32.5839 65.6961
rfemur 1.01766 -11.0792 34.9999
rtibia 66.1183
rfoot 3.17762 -7.20503
rtoes -9.09235
lfemur -47.5873 -5.84181 -18.2099
ltibia 55.3957
lfoot -4.21647 -14.7885
ltoes -34.7311
109
root 11.1158 14.002 -1.82152 -183.95 34.7618 166.387
lowerback 19.0752 4.39225 -8.70596
upperback 9.22828 5.72278 -3.89987
thorax -0.926172 3.31363 -0.393189
lowerneck 6.42219 -18.1226 -18.138
upperneck -24.6118 -19.5387 43.7708
head -0.292219 -11.1867 17.8147
rclavicle 2.62396e-014 4.33351e-014
rhumerus -38.9128 -16.7758 -52.5671
rradius 30.5541
rwrist 5.55507
rhand -37.2003 56.7639
rfingers 7.12502
rthumb -10.2678 27.0345
lclavicle 2.62396e-014 4.33351e-014
lhumerus 24.3101 18.9397 66.1859
lradius 67.486
lwrist 51.149
lhand 9.63568 38.3466
lfingers 7.12502
lthumb 34.7807 64.9536
rfemur -1.60927 -11.7648 33.7271
rtibia 71.2788
rfoot 1.61667 -8.73233
rtoes -3.77512
lfemur -44.8081 -5.49398 -18.4067
ltibia 56.1377
lfoot -8.55829 -8.48533
ltoes -27.836
110
root 11.4604 13.9342 -2.07853 -184.614 36.6383 165.839
lowerback 19.5109 4.53447 -8.63576
upperback 9.08887 5.82374 -4.08714
thorax -1.28008 3.37211 -0.701776
lowerneck 6.40532 -18.1855 -17.8503
upperneck -24.8398 -19.4514 44.0499
head -0.362459 -11.1929 17.9339
rclavicle 1.61016e-014 -1.55052e-014
rhumerus -40.4791 -17.9127 -50.4425
rradius 30.3527
rwrist 5.03338
rhand -38.5779 54.2366
rfingers 7.12502
rthumb -11.5966 24.5774
lclavicle 1.61016e-014 -1.55052e-014
lhumerus 23.6402 19.3531 64.6605
lradius 67.9765
lwrist 53.3372
lhand 10.9773 38.6291
lfingers 7.12502
lthumb 36.0526 64.9327
rfemur -4.59838 -12.458 32.7036
rtibia 76.3663
rfoot 0.230072 -9.64672
rtoes -0.757841
lfemur -42.3345 -5.46474 -18.0518
ltibia 57.0081
lfoot -14.5959 -8.54214
ltoes -34.9047
111
root 11.8104 13.8768 -2.33209 -185.138 38.3802 165.355
lowerback 19.7475 4.61343 -8.69237
upperback 9.03763 5.84996 -4.07155
thorax -1.46414 3.37571 -0.686448
lowerneck 6.23975 -18.0732 -17.2276
upperneck -25.1673 -19.0263 43.7948
head -0.697823 -11.0046 17.8538
rclavicle 9.54166e-015 8.0309e-014
rhumerus -41.5956 -18.8412 -48.3014
rradius 30.1734
rwrist 3.97588
rhand -38.6015 53.2219
rfingers 7.12502
rthumb -11.6194 23.5641
lclavicle 9.54166e-015 8.0309e-014
lhumerus 22.9716 19.8283 63.4599
lradius 68.6899
lwrist 56.3454
lhand 10.5601 39.6438
lfingers 7.12502
lthumb 35.6574 66.0437
rfemur -7.80447 -13.2465 31.8195
rtibia 81.1259
rfoot -0.944899 -10.0537
rtoes -1.28267
lfemur -40.1888 -5.50064 -17.4344
ltibia 57.9558
lfoot -18.3691 -4.95591
ltoes -45.0617
112
root 12.1708 13.8258 -2.57984 -185.806 39.9653 164.613
lowerback 19.8993 4.64074 -9.15214
upperback 9.05661 5.76362 -3.9465
thorax -1.56048 3.30991 -0.297214
lowerneck 5.5508 -18.0035 -17.4388
upperneck -25.0567 -18.9133 43.8737
head -0.526011 -10.8745 17.8473
rclavicle 6.02318e-014 -4.01545e-014
rhumerus -42.4911 -19.9101 -46.1189
rradius 30.2579
rwrist 2.87707
rhand -38.6939 51.3888
rfingers 7.12502
rthumb -11.7085 21.736
lclavicle 6.02318e-014 -4.01545e-014
lhumerus 22.1282 20.3836 62.485
lradius 69.6754
lwrist 58.9082
lhand 9.96116 41.0692
lfingers 7.12502
lthumb 35.0895 67.6044
rfemur -11.1746 -14.1111 30.8362
rtibia 85.6384
rfoot -2.10005 -10.0729
rtoes -3.73784
lfemur -38.29 -5.08152 -17.1229
ltibia 58.9086
lfoot -20.6066 -2.49458
ltoes -50.3558
